<?xml version="1.0" encoding="iso-8859-1"?>
<!-- Generator: Adobe Illustrator 19.0.0, SVG Export Plug-In . SVG Version: 6.00 Build 0)  -->
<svg version="1.1" id="Capa_1" xmlns="http://www.w3.org/2000/svg" xmlns:xlink="http://www.w3.org/1999/xlink" x="0px" y="0px"
	 viewBox="0 0 511.999 511.999" style="enable-background:new 0 0 511.999 511.999;" xml:space="preserve">
<g>
	<g transform="translate(1 1)">
		<g>
			<path style="fill:#558B30;" d="M314.488,56.244c-29.696-12.8-74.155-7.68-74.155-7.68s13.397,43.605,31.147,64.427
				c8.747,9.534,21.988,13.556,34.56,10.496L314.488,56.244z"/>
			<path style="fill:#558B30;" d="M502.467,10.345c0,0-27.648,100.181-64.171,148.309c-15.958,20.328-41.97,29.987-67.328,25.003
				c-17.576-2.813-33.786-11.187-46.251-23.893c-31.147-32-33.536-87.552,1.024-116.821c31.232-26.368,81.067-33.621,119.808-34.816
				h0.512C464.892,7.476,483.745,8.217,502.467,10.345z"/>
		</g>
		<path style="fill:#8BC34A;" d="M476.867,10.345c0,0-27.648,100.181-64.171,148.309c-10.169,13.398-25.117,22.355-41.728,25.003
			c-17.576-2.813-33.786-11.187-46.251-23.893c-31.147-32-33.536-87.552,1.024-116.821c31.232-26.368,81.067-33.621,119.808-34.816
			h0.512C464.664,8.724,476.867,10.345,476.867,10.345z"/>
		<path style="fill:#F57C00;" d="M425.667,361.406c-3.85,11.715-10.741,22.198-19.968,30.379
			c-9.183,8.247-20.361,13.953-32.427,16.555l-99.328,21.333c-8.759,1.86-17.79,2.063-26.624,0.597l-1.195-0.171
			c0.768-0.171,1.451-0.256,2.218-0.427l99.328-21.333c12.066-2.601,23.243-8.308,32.427-16.555
			c9.227-8.181,16.118-18.664,19.968-30.379c-0.036-14.84-10.987-27.392-25.685-29.44c0.069-0.131,0.099-0.279,0.085-0.427
			c0.003-9.054-3.593-17.737-9.995-24.139c-6.402-6.402-15.085-9.997-24.139-9.995c-2.382-0.002-4.757,0.255-7.083,0.768
			c-8.826-17.406-25.151-29.799-44.288-33.621c4.27-0.861,8.615-1.289,12.971-1.28c24.029-0.006,46.026,13.482,56.917,34.901
			c2.326-0.513,4.701-0.77,7.083-0.768c9.054-0.003,17.737,3.593,24.139,9.995s9.997,15.085,9.995,24.139
			c0.013,0.147-0.016,0.296-0.085,0.427C414.68,334.014,425.631,346.566,425.667,361.406z"/>
		<path style="fill:#FF9801;" d="M400.067,361.406c-3.85,11.715-10.741,22.198-19.968,30.379
			c-9.183,8.247-20.361,13.953-32.427,16.555l-99.328,21.333c-0.768,0.171-1.451,0.256-2.218,0.427l-63.232-10.581
			c-27.521-4.688-49.751-25.049-56.832-52.053l-16.128-61.525c-0.01-18.537,11.959-34.956,29.611-40.619
			c2.908-0.94,5.914-1.541,8.96-1.792c1.359-0.17,2.727-0.256,4.096-0.256c6.33,0.036,12.571,1.494,18.261,4.267
			c6.97-9.692,17.115-16.636,28.672-19.627c4.172-1.134,8.477-1.708,12.8-1.707c2.112,0.012,4.221,0.154,6.315,0.427
			c7.47,0.904,14.643,3.47,20.992,7.509c2.154-5.462,6.094-10.034,11.179-12.971c3.843-2.296,8.238-3.506,12.715-3.499
			c6.792-0.009,13.309,2.685,18.112,7.488c4.803,4.803,7.497,11.32,7.488,18.112c-0.015,0.431-0.072,0.86-0.171,1.28
			c19.137,3.823,35.462,16.216,44.288,33.621c2.326-0.513,4.701-0.77,7.083-0.768c9.054-0.003,17.737,3.593,24.139,9.995
			c6.402,6.402,9.997,15.085,9.995,24.139c0.013,0.147-0.016,0.296-0.085,0.427C389.08,334.014,400.031,346.566,400.067,361.406z"/>
		<path style="fill:#0377BC;" d="M84.333,318.74v153.6c-0.079,16.462-13.405,29.788-29.867,29.867H37.4
			c-16.487-0.018-29.849-13.379-29.867-29.867v-153.6c0.018-16.487,13.379-29.849,29.867-29.867h17.067
			c11.971,0.015,22.78,7.165,27.477,18.176C83.528,310.743,84.341,314.721,84.333,318.74z"/>
		<path style="fill:#2296F3;" d="M58.733,318.74v153.6c0.149,7.448-1.888,14.775-5.86,21.077c-2.882,5.131-8.176,8.443-14.051,8.789
			H27.444c-10.979,0-19.911-13.397-19.911-29.867v-153.6c0-16.469,8.932-29.867,19.911-29.867h11.378
			c8.192,0,15.303,7.509,18.318,18.176C58.212,310.853,58.748,314.788,58.733,318.74z"/>
		<path style="fill:#4E342E;" d="M491.203,387.604l-159.915,97.365c-7.593,4.645-16.143,7.505-25.003,8.363
			c-2.01,0.244-4.034,0.358-6.059,0.341H75.8l-0.256-0.256c5.638-5.563,8.805-13.157,8.789-21.077v-153.6
			c0.017-1.401-0.097-2.801-0.341-4.181v-0.085c-0.318-2.561-1.008-5.062-2.048-7.424l2.304-1.109h23.979
			c17.677,0.025,34.823,6.041,48.64,17.067c13.817,11.026,30.963,17.042,48.64,17.067h44.629
			c15.004-0.022,28.912,7.856,36.608,20.736l0.768,1.28c7.275,12.16,5.34,27.711-4.693,37.717h20.053
			c3.686,0.002,7.348-0.604,10.837-1.792l132.608-44.203l25.344-8.448c9.56-3.139,20.058,0.155,26.112,8.192v0.085
			c3.966,5.267,5.515,11.968,4.262,18.442C500.783,378.556,496.847,384.196,491.203,387.604z"/>
		<path style="fill:#795548;" d="M465.859,396.137l-159.573,97.195c-2.01,0.244-4.034,0.358-6.059,0.341H75.8l-0.256-0.256
			c5.638-5.563,8.805-13.157,8.789-21.077v-153.6c0-0.683,0-6.485-0.085-12.8h23.979c17.677,0.025,34.823,6.041,48.64,17.067
			c13.817,11.026,30.963,17.042,48.64,17.067h4.437l14.848,8.533c15.004-0.022,28.912,7.856,36.608,20.736l0.768,1.28
			c7.275,12.16,5.34,27.711-4.693,37.717h20.053c3.686,0.002,7.348-0.603,10.837-1.792l157.952-52.651
			c9.56-3.139,20.058,0.155,26.112,8.192v0.085c3.966,5.267,5.515,11.968,4.263,18.442
			C475.44,387.089,471.503,392.729,465.859,396.137z"/>
	</g>
	<g>
		<path d="M469.954,338.306l-36.675,12.226c-3.816-11.44-12.747-20.448-24.154-24.363c-3.308-21.789-22.655-37.481-44.658-36.221
			c-14.239-22.861-39.967-35.956-66.829-34.017c-2.911-11.378-11.454-20.468-22.63-24.079c7.979-25.957,22.224-49.552,41.477-68.703
			c1.029,1.178,1.993,2.417,3.082,3.536c17.18,17.534,40.653,27.476,65.2,27.617c1.729,0,3.467-0.05,5.196-0.158
			c22.121-1.004,42.663-11.749,56.104-29.346c37.15-48.867,64.483-147.071,65.625-151.229c0.657-2.38,0.251-4.928-1.114-6.986
			s-3.554-3.423-6.003-3.743c-5.029-0.667-123.9-15.588-183.325,34.6c-4.198,3.543-8.005,7.523-11.358,11.874
			c-23.398-6.448-47.802-8.425-71.933-5.828c-2.519,0.29-4.778,1.686-6.166,3.808c-1.388,2.122-1.761,4.751-1.017,7.176
			c0.571,1.85,14.129,45.546,32.783,67.429c8.267,9.377,20.248,14.633,32.746,14.367c1.224,0,2.464-0.094,3.703-0.187
			c1.765,4.42,3.855,8.703,6.252,12.815c-23.214,22.529-40.003,50.839-48.638,82.015c-8.076,1.711-15.267,6.268-20.263,12.84
			c-23.481-10.372-50.965-4.522-68.187,14.512c-5.023-1.665-10.279-2.516-15.571-2.521c-24.958,0.042-46.254,18.061-50.429,42.667
			H87.366c-7.117-10.658-19.084-17.06-31.899-17.067H38.4c-21.198,0.023-38.377,17.202-38.4,38.4v153.6
			c0.023,21.198,17.202,38.377,38.4,38.4h17.067c8.688-0.037,17.1-3.049,23.838-8.533h221.92
			c12.521,0.001,24.801-3.443,35.496-9.954l159.95-97.363c13.868-8.46,19.179-25.98,12.342-40.715
			C502.176,340.439,485.369,333.18,469.954,338.306L469.954,338.306z M332.258,50.481c32.671-27.583,88.179-33.021,126.871-33.021
			c13.842,0,25.533,0.696,33.254,1.321c-7.888,26.092-31.292,98.054-59.9,135.692c-10.46,13.612-26.407,21.9-43.558,22.637
			c-21.368,1.129-42.185-7.006-57.125-22.325c-1.086-1.116-2.06-2.339-3.072-3.527c17.879-16.214,37.707-30.14,59.027-41.457
			c4.233-2.072,5.985-7.184,3.913-11.417s-7.184-5.985-11.417-3.913c-22.105,11.48-42.687,25.683-61.264,42.277
			c-6.346-12.278-9.37-26.002-8.774-39.81C310.73,79.049,318.727,62.196,332.258,50.481z M276.575,110.852
			c-11.249-15.613-20.02-32.869-26.004-51.158c16.896-0.982,33.843,0.603,50.265,4.699c-4.567,9.98-7.171,20.745-7.669,31.709
			c-0.329,7.733,0.297,15.477,1.865,23.057C287.986,119.106,281.287,116.091,276.575,110.852z M153.6,272.806
			c5.048,0.031,10.025,1.196,14.562,3.408c3.722,1.766,8.173,0.625,10.587-2.712c13.131-18.353,38.32-23.236,57.358-11.121
			c2.163,1.372,4.828,1.699,7.259,0.891c2.431-0.808,4.37-2.665,5.282-5.058c2.402-6.372,8.4-10.674,15.206-10.906
			c0.228,0.018,0.459,0.068,0.686,0.068c0.214,0,0.406-0.092,0.618-0.108c9.008,0.273,16.232,7.536,16.457,16.545
			c-0.033,0.237-0.121,1.046-0.137,1.283c-0.15,2.645,0.937,5.21,2.942,6.942s4.701,2.434,7.296,1.9
			c3.691-0.754,7.449-1.133,11.217-1.133c20.836-0.029,39.916,11.664,49.35,30.242c1.755,3.433,5.596,5.26,9.367,4.454
			c7.478-1.532,15.251,0.336,21.215,5.1c5.965,4.764,9.505,11.931,9.664,19.563c-0.021,0.283-0.037,0.571-0.037,0.8
			c0.001,4.247,3.125,7.846,7.329,8.446c8.032,1.186,14.699,6.817,17.212,14.537L312,390.961c-2.611,0.87-5.344,1.313-8.096,1.312
			h-4.903c4.054-11.114,2.883-23.463-3.189-33.617l-0.758-1.254c-9.285-15.387-25.928-24.813-43.9-24.862h-44.633
			c-15.745-0.02-31.017-5.377-43.325-15.196c-12.343-9.819-27.131-16.085-42.771-18.122
			C124.011,283.783,137.751,272.843,153.6,272.806z M38.4,494.673c-11.776-0.014-21.32-9.557-21.333-21.333v-153.6
			c0.014-11.776,9.557-21.32,21.333-21.333h17.067c11.776,0.014,21.32,9.557,21.333,21.333v153.6
			c-0.014,11.776-9.557,21.319-21.333,21.333H38.4z M494.663,371.44c-0.774,4.119-3.271,7.711-6.863,9.871l-159.954,97.367
			c-8.021,4.882-17.231,7.464-26.621,7.462H91.508c1.518-4.099,2.316-8.429,2.359-12.8v-153.6c-0.062-1.429-0.206-2.854-0.431-4.267
			h15.777c15.745,0.02,31.017,5.377,43.325,15.196c15.334,12.237,34.365,18.913,53.983,18.938h44.633
			c11.984,0.035,23.081,6.322,29.271,16.583l0.758,1.254c4.659,7.765,4.159,17.577-1.264,24.829h-51.866
			c-16.848-0.017-33.322,4.972-47.329,14.333l-6.254,4.167c-2.552,1.684-4.009,4.605-3.817,7.656
			c0.191,3.052,2.001,5.768,4.744,7.119c2.743,1.352,5.999,1.132,8.536-0.576l6.254-4.167c11.208-7.489,24.387-11.48,37.867-11.466
			h75.85c4.586,0,9.141-0.739,13.492-2.188L426.27,370.86c0.139,0.007,0.256,0.08,0.396,0.08c1.914-0.034,3.757-0.724,5.224-1.954
			l43.464-14.488c6.083-2.031,12.782,0.075,16.608,5.221C494.495,363.061,495.477,367.327,494.663,371.44z"/>
		<path d="M194.992,306.769c4.618,0.938,9.123-2.044,10.063-6.662c1.232-5.951,6.469-10.222,12.546-10.234
			c2.769-0.009,5.464,0.888,7.675,2.554c3.768,2.81,9.098,2.043,11.921-1.714c2.823-3.757,2.076-9.09-1.671-11.927
			c-5.161-3.898-11.457-5.998-17.925-5.979c-14.185,0.032-26.403,10.008-29.271,23.9
			C187.392,301.325,190.374,305.829,194.992,306.769z"/>
		<path d="M294.846,309.052c5.079-3.333,11.799-2.649,16.104,1.637c1.965,1.952,3.237,4.494,3.621,7.237
			c0.599,4.201,4.194,7.323,8.438,7.329c0.407-0.001,0.813-0.029,1.217-0.083c4.666-0.667,7.909-4.988,7.246-9.654
			c-1.45-10.136-7.99-18.824-17.33-23.021s-20.179-3.318-28.72,2.329c-2.547,1.681-4.002,4.595-3.817,7.641
			c0.186,3.046,1.985,5.761,4.717,7.12C289.055,310.947,292.305,310.742,294.846,309.052L294.846,309.052z"/>
	</g>
</g>
<g>
</g>
<g>
</g>
<g>
</g>
<g>
</g>
<g>
</g>
<g>
</g>
<g>
</g>
<g>
</g>
<g>
</g>
<g>
</g>
<g>
</g>
<g>
</g>
<g>
</g>
<g>
</g>
<g>
</g>
</svg>
