<?xml version="1.0" encoding="iso-8859-1"?>
<!-- Generator: Adobe Illustrator 19.0.0, SVG Export Plug-In . SVG Version: 6.00 Build 0)  -->
<svg version="1.1" id="Capa_1" xmlns="http://www.w3.org/2000/svg" xmlns:xlink="http://www.w3.org/1999/xlink" x="0px" y="0px"
	 viewBox="0 0 512 512" style="enable-background:new 0 0 512 512;" xml:space="preserve">
<path id="SVGCleanerId_0" style="fill:#4D4A5B;" d="M448.952,245.35c0-57.88-35.077-140.945-36.833-145.068
	c0,0-0.018,0.022-0.034,0.04c0.001-0.003,0.006-0.022,0.006-0.022s-71.253-25.315-99.389-36.899
	c-8.348-3.437-14.359-28.534-14.359-28.534l-0.66-20.619c-0.12-3.751-3.196-6.73-6.949-6.73h-66.552
	c-3.753,0-6.829,2.979-6.949,6.73l-0.66,20.619c0,0-6.011,25.097-14.359,28.534c-28.137,11.585-99.389,36.899-99.389,36.899
	s0.005,0.019,0.006,0.022c-0.016-0.02-0.034-0.04-0.034-0.04c-1.757,4.123-36.833,87.188-36.833,145.068
	c0,45.832-3.338,183.33-4.86,243.643c-0.214,8.495,6.613,15.49,15.111,15.49h43.266c0.587-52.206,3.473-240.507,14.757-268.453
	l0.223-0.629c-0.068-0.353-0.128-0.715-0.193-1.073c5.642,29.375,9.908,57.729,10.375,78.048
	c1.494,64.967-17.431,105.291-24.151,174.739l-1.011,17.368h275.955l-1.011-17.368c-6.721-69.447-25.645-109.772-24.151-174.739
	c0.467-20.296,4.723-48.609,10.355-77.948c-0.058,0.324-0.113,0.653-0.174,0.973l0.223,0.629
	c11.284,27.946,14.17,216.247,14.757,268.453h40.348c8.408,0,15.2-6.853,15.115-15.261
	C450.291,429.029,448.952,291.24,448.952,245.35z"/>
<path id="SVGCleanerId_1" style="fill:#444251;" d="M370.273,312.376c1.493-64.967,41.818-212.076,41.818-212.076
	s-71.253-25.315-99.389-36.899c-8.348-3.437-14.359-28.534-14.359-28.534l-0.66-20.619c-0.12-3.751-3.196-6.73-6.949-6.73h-52.533
	c3.753,0,6.829,2.979,6.949,6.73l0.66,20.619c0,0,6.011,25.097,14.359,28.534c18.008,7.414,53.677,20.453,77.024,28.879
	c12.597,4.546,19.67,17.922,16.332,30.891c-11.307,43.921-34.655,140.062-35.784,189.205
	c-1.494,64.967,17.431,105.291,24.151,174.739l1.011,17.368h52.533l-1.011-17.368C387.704,417.668,368.78,377.343,370.273,312.376z"
	/>
<path id="SVGCleanerId_2" style="fill:#FED9A8;" d="M255.999,107.931c27.988,0,51.762-17.979,60.444-43.011
	c-1.315-0.528-2.569-1.037-3.742-1.52c-8.348-3.437-14.359-28.534-14.359-28.534l-0.66-20.619c-0.12-3.751-3.196-6.73-6.949-6.73
	h-66.552c-3.753,0-6.829,2.979-6.949,6.73l-0.66,20.619c0,0-6.011,25.097-14.359,28.534c-1.915,0.788-4.035,1.642-6.313,2.545
	C204.87,90.446,228.393,107.931,255.999,107.931z"/>
<path id="SVGCleanerId_3" style="fill:#F4CFA2;" d="M298.342,34.866l-0.66-20.619c-0.12-3.751-3.196-6.73-6.949-6.73h-33.276
	v100.385c27.351-0.614,50.454-18.386,58.986-42.982c-1.315-0.528-2.569-1.037-3.742-1.52
	C304.354,59.964,298.342,34.866,298.342,34.866z"/>
<polygon style="fill:#FFFFFF;" points="257.458,67.07 209.119,100.713 257.458,361.838 305.797,100.713 "/>
<path id="SVGCleanerId_4" style="fill:#F2F2F2;" d="M216.517,35.095c-0.599,2.413-6.21,24.255-13.892,28.102
	c-0.135,0.077-0.271,0.146-0.411,0.203c-0.001,0-0.002,0.001-0.002,0.001l6.907,37.311l48.339-33.643
	C257.458,67.07,229.805,56.355,216.517,35.095z"/>
<path id="SVGCleanerId_5" style="fill:#F2F2F2;" d="M298.399,35.095c0.599,2.413,6.21,24.255,13.892,28.102
	c0.135,0.077,0.271,0.146,0.411,0.203c0.001,0,0.002,0.001,0.002,0.001l-6.907,37.311L257.458,67.07
	C257.458,67.07,285.111,56.355,298.399,35.095z"/>
<polygon style="fill:#E25959;" points="257.458,67.07 233.338,83.857 242.851,103.983 257.458,103.983 272.065,103.983 
	281.578,83.857 "/>
<path style="fill:#3A3847;" d="M264.975,504.483V330.017c0-4.151-3.365-7.517-7.517-7.517c-4.152,0-7.517,3.366-7.517,7.517v174.467
	h15.034V504.483z"/>
<path id="SVGCleanerId_6" style="fill:#3A3847;" d="M216.785,439.958h-48.738c-2.114,0-3.828-1.714-3.828-3.828v-20.982
	c0-2.114,1.714-3.828,3.828-3.828h48.738c2.114,0,3.828,1.714,3.828,3.828v20.982C220.612,438.244,218.898,439.958,216.785,439.958z
	"/>
<path id="SVGCleanerId_7" style="fill:#3A3847;" d="M343.718,439.958h-48.739c-2.114,0-3.828-1.714-3.828-3.828v-20.982
	c0-2.114,1.714-3.828,3.828-3.828h48.738c2.114,0,3.828,1.714,3.828,3.828v20.982C347.545,438.244,345.832,439.958,343.718,439.958z
	"/>
<path id="SVGCleanerId_8" style="fill:#666277;" d="M257.458,361.838L202.212,63.402c-7.003,2.883-16.57,6.617-27.016,10.599
	c-4.923,8.39-11.2,20.037-19.295,36.007l31.454,7.399l-15.773,19.484L257.458,361.838z"/>
<path id="SVGCleanerId_9" style="fill:#666277;" d="M257.458,361.838l55.246-298.437c7.003,2.883,16.57,6.617,27.016,10.599
	c4.923,8.39,11.2,20.037,19.295,36.007l-31.454,7.399l15.773,19.484L257.458,361.838z"/>
<polygon style="fill:#F33A3A;" points="257.456,361.826 257.458,361.838 285.14,212.299 271.904,103.983 257.458,103.983 
	243.012,103.983 229.776,212.3 "/>
<path id="SVGCleanerId_10" style="fill:#F15A24;" d="M298.814,36.695c0.025,0.093,0.051,0.188,0.077,0.287
	C298.865,36.884,298.839,36.787,298.814,36.695z"/>
<path id="SVGCleanerId_11" style="fill:#F15A24;" d="M298.533,35.624c0.018,0.07,0.036,0.14,0.057,0.219
	C298.569,35.766,298.55,35.694,298.533,35.624z"/>
<path id="SVGCleanerId_12" style="fill:#F15A24;" d="M299.002,37.385c0.026,0.095,0.053,0.192,0.081,0.291
	C299.055,37.577,299.028,37.478,299.002,37.385z"/>
<path id="SVGCleanerId_13" style="fill:#F15A24;" d="M298.657,36.103c0.023,0.086,0.045,0.172,0.07,0.266
	C298.703,36.277,298.679,36.188,298.657,36.103z"/>
<path id="SVGCleanerId_14" style="fill:#F15A24;" d="M298.447,35.287c0.011,0.043,0.02,0.082,0.033,0.131
	C298.468,35.37,298.457,35.329,298.447,35.287z"/>
<path id="SVGCleanerId_15" style="fill:#F15A24;" d="M299.738,39.952c0.006,0.021,0.013,0.042,0.019,0.063
	C299.751,39.994,299.744,39.972,299.738,39.952z"/>
<path id="SVGCleanerId_16" style="fill:#F15A24;" d="M299.219,38.162c0.025,0.09,0.052,0.184,0.079,0.277
	C299.271,38.346,299.244,38.251,299.219,38.162z"/>
<path id="SVGCleanerId_17" style="fill:#F15A24;" d="M215.429,39.097c0.003-0.009,0.006-0.019,0.008-0.029
	C215.435,39.078,215.432,39.088,215.429,39.097z"/>
<polygon style="fill:#F15A24;" points="202.212,63.402 202.212,63.402 202.212,63.401 "/>
<path id="SVGCleanerId_18" style="fill:#F15A24;" d="M215.655,38.309c0.008-0.027,0.016-0.054,0.023-0.081
	C215.671,38.254,215.663,38.282,215.655,38.309z"/>
<path id="SVGCleanerId_19" style="fill:#F15A24;" d="M215.864,37.565c0.009-0.033,0.018-0.067,0.028-0.099
	C215.883,37.498,215.873,37.532,215.864,37.565z"/>
<path id="SVGCleanerId_20" style="fill:#F15A24;" d="M216.218,36.259c0.001-0.003,0.001-0.006,0.002-0.008
	C216.219,36.253,216.219,36.256,216.218,36.259z"/>
<path id="SVGCleanerId_21" style="fill:#F15A24;" d="M216.056,36.863c0.005-0.017,0.009-0.033,0.013-0.05
	C216.065,36.83,216.061,36.847,216.056,36.863z"/>
<polygon style="fill:#C13A3A;" points="257.458,103.983 257.458,103.983 257.458,361.837 257.458,361.838 285.14,212.299 
	271.904,103.983 "/>
<path id="SVGCleanerId_22" style="fill:#666277;" d="M216.785,411.321h-48.738c-2.114,0-3.828,1.714-3.828,3.828v6.663
	c0,2.114,1.714,3.828,3.828,3.828h48.738c2.114,0,3.828-1.714,3.828-3.828v-6.663C220.612,413.034,218.898,411.321,216.785,411.321z
	"/>
<path id="SVGCleanerId_23" style="fill:#666277;" d="M343.718,411.321h-48.739c-2.114,0-3.828,1.714-3.828,3.828v6.663
	c0,2.114,1.714,3.828,3.828,3.828h48.738c2.114,0,3.828-1.714,3.828-3.828v-6.663C347.545,413.034,345.832,411.321,343.718,411.321z
	"/>
<g>
	<path id="SVGCleanerId_0_1_" style="fill:#4D4A5B;" d="M448.952,245.35c0-57.88-35.077-140.945-36.833-145.068
		c0,0-0.018,0.022-0.034,0.04c0.001-0.003,0.006-0.022,0.006-0.022s-71.253-25.315-99.389-36.899
		c-8.348-3.437-14.359-28.534-14.359-28.534l-0.66-20.619c-0.12-3.751-3.196-6.73-6.949-6.73h-66.552
		c-3.753,0-6.829,2.979-6.949,6.73l-0.66,20.619c0,0-6.011,25.097-14.359,28.534c-28.137,11.585-99.389,36.899-99.389,36.899
		s0.005,0.019,0.006,0.022c-0.016-0.02-0.034-0.04-0.034-0.04c-1.757,4.123-36.833,87.188-36.833,145.068
		c0,45.832-3.338,183.33-4.86,243.643c-0.214,8.495,6.613,15.49,15.111,15.49h43.266c0.587-52.206,3.473-240.507,14.757-268.453
		l0.223-0.629c-0.068-0.353-0.128-0.715-0.193-1.073c5.642,29.375,9.908,57.729,10.375,78.048
		c1.494,64.967-17.431,105.291-24.151,174.739l-1.011,17.368h275.955l-1.011-17.368c-6.721-69.447-25.645-109.772-24.151-174.739
		c0.467-20.296,4.723-48.609,10.355-77.948c-0.058,0.324-0.113,0.653-0.174,0.973l0.223,0.629
		c11.284,27.946,14.17,216.247,14.757,268.453h40.348c8.408,0,15.2-6.853,15.115-15.261
		C450.291,429.029,448.952,291.24,448.952,245.35z"/>
</g>
<g>
	<path id="SVGCleanerId_1_1_" style="fill:#444251;" d="M370.273,312.376c1.493-64.967,41.818-212.076,41.818-212.076
		s-71.253-25.315-99.389-36.899c-8.348-3.437-14.359-28.534-14.359-28.534l-0.66-20.619c-0.12-3.751-3.196-6.73-6.949-6.73h-52.533
		c3.753,0,6.829,2.979,6.949,6.73l0.66,20.619c0,0,6.011,25.097,14.359,28.534c18.008,7.414,53.677,20.453,77.024,28.879
		c12.597,4.546,19.67,17.922,16.332,30.891c-11.307,43.921-34.655,140.062-35.784,189.205
		c-1.494,64.967,17.431,105.291,24.151,174.739l1.011,17.368h52.533l-1.011-17.368C387.704,417.668,368.78,377.343,370.273,312.376z
		"/>
</g>
<g>
	<path id="SVGCleanerId_2_1_" style="fill:#FED9A8;" d="M255.999,107.931c27.988,0,51.762-17.979,60.444-43.011
		c-1.315-0.528-2.569-1.037-3.742-1.52c-8.348-3.437-14.359-28.534-14.359-28.534l-0.66-20.619c-0.12-3.751-3.196-6.73-6.949-6.73
		h-66.552c-3.753,0-6.829,2.979-6.949,6.73l-0.66,20.619c0,0-6.011,25.097-14.359,28.534c-1.915,0.788-4.035,1.642-6.313,2.545
		C204.87,90.446,228.393,107.931,255.999,107.931z"/>
</g>
<g>
	<path id="SVGCleanerId_3_1_" style="fill:#F4CFA2;" d="M298.342,34.866l-0.66-20.619c-0.12-3.751-3.196-6.73-6.949-6.73h-33.276
		v100.385c27.351-0.614,50.454-18.386,58.986-42.982c-1.315-0.528-2.569-1.037-3.742-1.52
		C304.354,59.964,298.342,34.866,298.342,34.866z"/>
</g>
<polygon style="fill:#FFFFFF;" points="257.458,67.07 209.119,100.713 257.458,361.838 305.797,100.713 "/>
<g>
	<path id="SVGCleanerId_4_1_" style="fill:#F2F2F2;" d="M216.517,35.095c-0.599,2.413-6.21,24.255-13.892,28.102
		c-0.135,0.077-0.271,0.146-0.411,0.203c-0.001,0-0.002,0.001-0.002,0.001l6.907,37.311l48.339-33.643
		C257.458,67.07,229.805,56.355,216.517,35.095z"/>
</g>
<g>
	<path id="SVGCleanerId_5_1_" style="fill:#F2F2F2;" d="M298.399,35.095c0.599,2.413,6.21,24.255,13.892,28.102
		c0.135,0.077,0.271,0.146,0.411,0.203c0.001,0,0.002,0.001,0.002,0.001l-6.907,37.311L257.458,67.07
		C257.458,67.07,285.111,56.355,298.399,35.095z"/>
</g>
<polygon style="fill:#E25959;" points="257.458,67.07 233.338,83.857 242.851,103.983 257.458,103.983 272.065,103.983 
	281.578,83.857 "/>
<g>
	<path id="SVGCleanerId_6_1_" style="fill:#3A3847;" d="M216.785,439.958h-48.738c-2.114,0-3.828-1.714-3.828-3.828v-20.982
		c0-2.114,1.714-3.828,3.828-3.828h48.738c2.114,0,3.828,1.714,3.828,3.828v20.982C220.612,438.244,218.898,439.958,216.785,439.958
		z"/>
</g>
<g>
	<path id="SVGCleanerId_7_1_" style="fill:#3A3847;" d="M343.718,439.958h-48.739c-2.114,0-3.828-1.714-3.828-3.828v-20.982
		c0-2.114,1.714-3.828,3.828-3.828h48.738c2.114,0,3.828,1.714,3.828,3.828v20.982C347.545,438.244,345.832,439.958,343.718,439.958
		z"/>
</g>
<g>
	<path id="SVGCleanerId_8_1_" style="fill:#666277;" d="M257.458,361.838L202.212,63.402c-7.003,2.883-16.57,6.617-27.016,10.599
		c-4.923,8.39-11.2,20.037-19.295,36.007l31.454,7.399l-15.773,19.484L257.458,361.838z"/>
</g>
<g>
	<path id="SVGCleanerId_9_1_" style="fill:#666277;" d="M257.458,361.838l55.246-298.437c7.003,2.883,16.57,6.617,27.016,10.599
		c4.923,8.39,11.2,20.037,19.295,36.007l-31.454,7.399l15.773,19.484L257.458,361.838z"/>
</g>
<polygon style="fill:#F33A3A;" points="257.456,361.826 257.458,361.838 285.14,212.299 271.904,103.983 257.458,103.983 
	243.012,103.983 229.776,212.3 "/>
<g>
	<path id="SVGCleanerId_10_1_" style="fill:#F15A24;" d="M298.814,36.695c0.025,0.093,0.051,0.188,0.077,0.287
		C298.865,36.884,298.839,36.787,298.814,36.695z"/>
</g>
<g>
	<path id="SVGCleanerId_11_1_" style="fill:#F15A24;" d="M298.533,35.624c0.018,0.07,0.036,0.14,0.057,0.219
		C298.569,35.766,298.55,35.694,298.533,35.624z"/>
</g>
<g>
	<path id="SVGCleanerId_12_1_" style="fill:#F15A24;" d="M299.002,37.385c0.026,0.095,0.053,0.192,0.081,0.291
		C299.055,37.577,299.028,37.478,299.002,37.385z"/>
</g>
<g>
	<path id="SVGCleanerId_13_1_" style="fill:#F15A24;" d="M298.657,36.103c0.023,0.086,0.045,0.172,0.07,0.266
		C298.703,36.277,298.679,36.188,298.657,36.103z"/>
</g>
<g>
	<path id="SVGCleanerId_14_1_" style="fill:#F15A24;" d="M298.447,35.287c0.011,0.043,0.02,0.082,0.033,0.131
		C298.468,35.37,298.457,35.329,298.447,35.287z"/>
</g>
<g>
	<path id="SVGCleanerId_15_1_" style="fill:#F15A24;" d="M299.738,39.952c0.006,0.021,0.013,0.042,0.019,0.063
		C299.751,39.994,299.744,39.972,299.738,39.952z"/>
</g>
<g>
	<path id="SVGCleanerId_16_1_" style="fill:#F15A24;" d="M299.219,38.162c0.025,0.09,0.052,0.184,0.079,0.277
		C299.271,38.346,299.244,38.251,299.219,38.162z"/>
</g>
<g>
	<path id="SVGCleanerId_17_1_" style="fill:#F15A24;" d="M215.429,39.097c0.003-0.009,0.006-0.019,0.008-0.029
		C215.435,39.078,215.432,39.088,215.429,39.097z"/>
</g>
<polygon style="fill:#F15A24;" points="202.212,63.402 202.212,63.402 202.212,63.401 "/>
<g>
	<path id="SVGCleanerId_18_1_" style="fill:#F15A24;" d="M215.655,38.309c0.008-0.027,0.016-0.054,0.023-0.081
		C215.671,38.254,215.663,38.282,215.655,38.309z"/>
</g>
<g>
	<path id="SVGCleanerId_19_1_" style="fill:#F15A24;" d="M215.864,37.565c0.009-0.033,0.018-0.067,0.028-0.099
		C215.883,37.498,215.873,37.532,215.864,37.565z"/>
</g>
<g>
	<path id="SVGCleanerId_20_1_" style="fill:#F15A24;" d="M216.218,36.259c0.001-0.003,0.001-0.006,0.002-0.008
		C216.219,36.253,216.219,36.256,216.218,36.259z"/>
</g>
<g>
	<path id="SVGCleanerId_21_1_" style="fill:#F15A24;" d="M216.056,36.863c0.005-0.017,0.009-0.033,0.013-0.05
		C216.065,36.83,216.061,36.847,216.056,36.863z"/>
</g>
<polygon style="fill:#C13A3A;" points="257.458,103.983 257.458,103.983 257.458,361.837 257.458,361.838 285.14,212.299 
	271.904,103.983 "/>
<g>
	<path id="SVGCleanerId_22_1_" style="fill:#666277;" d="M216.785,411.321h-48.738c-2.114,0-3.828,1.714-3.828,3.828v6.663
		c0,2.114,1.714,3.828,3.828,3.828h48.738c2.114,0,3.828-1.714,3.828-3.828v-6.663C220.612,413.034,218.898,411.321,216.785,411.321
		z"/>
</g>
<g>
	<path id="SVGCleanerId_23_1_" style="fill:#666277;" d="M343.718,411.321h-48.739c-2.114,0-3.828,1.714-3.828,3.828v6.663
		c0,2.114,1.714,3.828,3.828,3.828h48.738c2.114,0,3.828-1.714,3.828-3.828v-6.663C347.545,413.034,345.832,411.321,343.718,411.321
		z"/>
</g>
<path d="M156.701,415.148v20.982c0,6.256,5.09,11.345,11.345,11.345h48.738c6.255,0,11.345-5.089,11.345-11.345v-20.982
	c0-6.255-5.09-11.344-11.345-11.344h-48.738C161.791,403.804,156.701,408.893,156.701,415.148z M171.735,418.838h41.36v13.604
	h-41.36V418.838z"/>
<path d="M343.718,403.804h-48.739c-6.255,0-11.344,5.089-11.344,11.344v20.982c0,6.256,5.089,11.345,11.344,11.345h48.739
	c6.255,0,11.344-5.089,11.344-11.345v-20.982C355.062,408.893,349.973,403.804,343.718,403.804z M340.028,432.441h-41.359v-13.604
	h41.359L340.028,432.441L340.028,432.441z"/>
<path d="M456.47,245.35c0-59.477-35.907-144.428-37.436-148.015c-0.915-2.149-2.77-3.735-4.998-4.322
	c-6.796-2.42-71.821-25.609-98.271-36.481c-0.023-0.012-0.044-0.023-0.069-0.035c-2.328-1.42-6.911-11.046-9.867-22.698
	l-0.633-19.792C304.946,6.153,298.593,0,290.734,0h-66.552c-7.86,0-14.212,6.153-14.461,14.006l-0.633,19.793
	c-0.883,3.481-1.909,6.783-2.978,9.736c-0.077,0.211-0.155,0.417-0.232,0.626c-0.13,0.352-0.261,0.702-0.392,1.043
	c-0.143,0.371-0.288,0.734-0.432,1.095c-0.074,0.186-0.149,0.375-0.223,0.557c-0.155,0.378-0.31,0.744-0.465,1.107
	c-0.076,0.177-0.151,0.357-0.227,0.53c-0.133,0.306-0.266,0.599-0.4,0.893c-0.106,0.232-0.212,0.467-0.317,0.691
	c-0.094,0.201-0.187,0.391-0.281,0.585c-0.146,0.3-0.291,0.6-0.434,0.881c-0.051,0.1-0.101,0.193-0.151,0.291
	c-0.181,0.347-0.36,0.686-0.535,1.001c-0.016,0.028-0.031,0.054-0.047,0.082c-0.413,0.734-0.81,1.376-1.182,1.908
	c-0.003,0.005-0.006,0.008-0.009,0.013c-0.186,0.265-0.367,0.503-0.54,0.712c-0.018,0.022-0.035,0.038-0.053,0.059
	c-0.161,0.191-0.318,0.364-0.466,0.504c0,0,0,0-0.001,0.001c-0.162,0.153-0.317,0.275-0.462,0.363c-0.04,0.02-0.078,0.04-0.117,0.06
	c-0.17,0.07-0.345,0.141-0.518,0.212c-26.765,10.956-90.959,33.849-97.74,36.263c-2.213,0.582-4.081,2.156-5.004,4.325
	c-1.529,3.589-37.434,88.583-37.434,148.013c0,46.005-3.396,185.58-4.858,243.453c-0.155,6.15,2.125,11.961,6.418,16.365
	C64.303,509.574,70.059,512,76.215,512h359.569c6.091,0,11.805-2.383,16.089-6.71c4.28-4.325,6.605-10.057,6.543-16.143
	C457.83,431.22,456.47,291.505,456.47,245.35z M300.542,61.388c0.024,0.038,0.048,0.075,0.072,0.113
	c0.339,0.537,0.687,1.06,1.044,1.569c0.066,0.095,0.131,0.193,0.198,0.287c0.336,0.469,0.682,0.919,1.034,1.358
	c0.134,0.168,0.269,0.334,0.406,0.497c0.342,0.407,0.689,0.802,1.045,1.176c0.046,0.049,0.09,0.105,0.136,0.154l-3.951,21.346
	l-28.276-19.68c6.864-3.857,15.573-9.63,23.16-17.368C296.818,54.476,298.523,58.165,300.542,61.388z M297.522,104.112
	l-10.861,58.67l-7-57.281l4.915-10.399L297.522,104.112z M224.729,15.034h65.458l0.575,17.984
	c-9.749,14.042-26.74,22.841-33.313,25.862c-6.576-3.009-23.512-11.756-33.295-25.861L224.729,15.034z M272.064,86.394
	l-4.761,10.072h-19.691l-4.761-10.072l14.606-10.166L272.064,86.394z M210.57,66.392c0.359-0.377,0.708-0.775,1.053-1.185
	c0.134-0.16,0.267-0.323,0.399-0.488c0.353-0.441,0.701-0.893,1.038-1.364c0.066-0.093,0.13-0.189,0.196-0.283
	c0.358-0.51,0.707-1.035,1.047-1.573c0.023-0.037,0.047-0.073,0.07-0.11c2.02-3.223,3.725-6.912,5.133-10.55
	c7.587,7.738,16.295,13.51,23.159,17.368l-28.276,19.68l0,0l-3.952-21.346C210.483,66.494,210.525,66.439,210.57,66.392z
	 M235.254,105.499l-7,57.284l-10.861-58.671l12.946-9.01L235.254,105.499z M112.052,496.966H76.215
	c-2.068,0-4.002-0.815-5.444-2.294c-1.441-1.477-2.205-3.427-2.152-5.49c1.461-57.93,4.862-197.657,4.862-243.832
	c0-39.674,17.196-92.136,27.91-120.973c6.54,25.413,17.284,68.975,25.295,110.439C116.15,266.198,112.973,422.517,112.052,496.966z
	 M249.941,496.966H127.448l0.54-9.271c2.763-28.465,7.59-51.907,12.259-74.578c6.583-31.965,12.801-62.157,11.911-100.914
	c-0.044-1.892-0.128-3.891-0.236-5.952c-0.009-0.168-0.016-0.334-0.025-0.503c-0.046-0.831-0.099-1.682-0.154-2.54
	c-0.025-0.382-0.049-0.763-0.076-1.149c-0.052-0.747-0.107-1.504-0.167-2.271c-0.044-0.568-0.091-1.142-0.139-1.718
	c-0.053-0.639-0.106-1.277-0.164-1.93c-0.084-0.943-0.175-1.899-0.269-2.861c-0.032-0.325-0.06-0.64-0.093-0.967
	c-6.201-61.886-31.785-160.446-38.947-187.264c9.541-3.411,28.067-10.067,46.932-17.019c-2.934,5.517-6.131,11.689-9.624,18.58
	c-1.042,2.056-1.084,4.478-0.112,6.569c0.973,2.091,2.85,3.62,5.095,4.148l19.801,4.657l-8.239,10.178
	c-1.686,2.083-2.137,4.907-1.18,7.411l9.822,25.728c1.481,3.879,5.827,5.82,9.704,4.342c3.879-1.481,5.823-5.825,4.342-9.704
	l-8.277-21.683l13.048-16.118c1.628-2.01,2.107-4.716,1.27-7.163c-0.838-2.447-2.874-4.292-5.391-4.884l-22.115-5.202
	c5.171-10.013,9.592-18.201,13.398-24.813c6.092-2.33,11.484-4.424,16.134-6.266l0,0c0,0.001,0,0,0,0.001l36.642,197.937
	l1.906,10.296l-34.132-89.407c-1.482-3.879-5.83-5.821-9.704-4.342c-3.879,1.481-5.823,5.825-4.342,9.704l63.076,165.226
	L249.941,496.966L249.941,496.966z M129.251,391.616c1.47-47.755,3.39-83.144,5.464-107.967c1.35,10.718,2.216,20.532,2.408,28.9
	c0.052,2.247,0.076,4.464,0.078,6.657c0,0.23-0.003,0.457-0.003,0.687c-0.002,1.915-0.023,3.809-0.061,5.686
	c-0.007,0.354-0.015,0.708-0.023,1.061c-0.045,1.884-0.105,3.752-0.184,5.6c-0.008,0.194-0.014,0.39-0.023,0.584
	c-0.187,4.216-0.457,8.345-0.801,12.402c-0.01,0.116-0.021,0.23-0.031,0.346c-0.161,1.87-0.337,3.724-0.528,5.566
	c-0.025,0.245-0.051,0.49-0.077,0.735c-0.196,1.854-0.404,3.697-0.627,5.526c-0.01,0.08-0.019,0.16-0.029,0.24
	c-0.734,5.981-1.607,11.84-2.578,17.636c-0.006,0.037-0.012,0.074-0.019,0.111C131.304,380.834,130.301,386.227,129.251,391.616z
	 M237.377,212.066L249.666,111.5h15.582l12.29,100.562l-20.08,108.478L237.377,212.066z M264.975,496.966V363.225l63.077-165.226
	c1.481-3.878-0.463-8.223-4.342-9.704c-3.88-1.482-8.223,0.464-9.704,4.342l-34.132,89.407L318.422,73.81c0-0.002,0,0.002,0,0l0,0
	c0.001-0.006-0.001,0.006,0,0l0,0c4.655,1.844,10.047,3.937,16.135,6.266c3.804,6.608,8.225,14.795,13.397,24.813l-22.114,5.202
	c-2.517,0.592-4.553,2.437-5.391,4.884c-0.837,2.447-0.357,5.153,1.27,7.163l13.048,16.118l-8.277,21.683
	c-1.481,3.878,0.463,8.223,4.342,9.704c3.875,1.478,8.223-0.462,9.704-4.342l9.822-25.728c0.956-2.504,0.506-5.327-1.18-7.411
	l-8.239-10.178l19.8-4.657c2.244-0.528,4.122-2.057,5.095-4.148c0.972-2.091,0.931-4.512-0.112-6.569
	c-3.494-6.893-6.691-13.064-9.624-18.58c18.862,6.952,37.386,13.607,46.928,17.018c-7.491,28.049-35.132,134.574-39.672,195.539
	c-0.017,0.231-0.034,0.461-0.051,0.691c-0.073,1.012-0.138,2.009-0.198,2.995c-0.019,0.308-0.039,0.619-0.056,0.923
	c-0.052,0.919-0.097,1.822-0.137,2.717c-0.013,0.3-0.03,0.608-0.042,0.904c-0.047,1.149-0.085,2.282-0.11,3.387
	c-0.167,7.267-0.084,14.233,0.204,20.966c1.25,29.176,6.357,53.977,11.705,79.948c4.67,22.672,9.498,46.113,12.261,74.58
	l0.539,9.269H264.975V496.966z M385.667,391.649c-0.302-1.551-0.604-3.101-0.897-4.654c-0.03-0.156-0.058-0.313-0.087-0.47
	c-0.301-1.599-0.596-3.201-0.885-4.805c-0.102-0.565-0.201-1.132-0.301-1.698c-0.217-1.227-0.431-2.456-0.64-3.687
	c-0.107-0.628-0.212-1.257-0.317-1.886c-0.207-1.25-0.408-2.504-0.606-3.761c-0.088-0.56-0.178-1.119-0.264-1.682
	c-0.276-1.801-0.543-3.609-0.797-5.428c-0.013-0.093-0.024-0.187-0.037-0.28c-0.238-1.718-0.463-3.446-0.678-5.183
	c-0.071-0.576-0.138-1.157-0.207-1.736c-0.153-1.285-0.3-2.576-0.44-3.873c-0.07-0.652-0.138-1.305-0.205-1.961
	c-0.133-1.311-0.257-2.632-0.375-3.957c-0.053-0.59-0.108-1.178-0.158-1.771c-0.159-1.903-0.306-3.819-0.432-5.755
	c-0.003-0.053-0.006-0.107-0.009-0.16c-0.121-1.877-0.221-3.774-0.308-5.685c-0.028-0.617-0.049-1.242-0.074-1.864
	c-0.054-1.381-0.101-2.771-0.137-4.172c-0.018-0.707-0.033-1.417-0.047-2.13c-0.026-1.413-0.04-2.839-0.046-4.273
	c-0.003-0.648-0.009-1.291-0.008-1.944c0.005-2.073,0.025-4.163,0.074-6.285c0.023-0.994,0.056-2.014,0.098-3.06
	c0.009-0.223,0.023-0.456,0.033-0.681c0.036-0.827,0.074-1.658,0.122-2.517c0.017-0.311,0.04-0.633,0.059-0.946
	c0.047-0.787,0.094-1.575,0.151-2.388c0.026-0.371,0.057-0.753,0.085-1.128c0.057-0.769,0.114-1.538,0.179-2.33
	c0.037-0.442,0.079-0.896,0.118-1.343c0.064-0.736,0.128-1.47,0.199-2.224c0.049-0.525,0.104-1.06,0.157-1.591
	c0.068-0.686,0.135-1.371,0.209-2.072c0.065-0.619,0.134-1.246,0.203-1.873c0.068-0.617,0.136-1.234,0.207-1.861
	c0.084-0.733,0.172-1.474,0.261-2.216c0.061-0.514,0.124-1.029,0.188-1.55c0.047-0.379,0.096-0.763,0.145-1.144
	C382.275,308.455,384.196,343.864,385.667,391.649z M441.188,494.713c-1.439,1.453-3.358,2.253-5.405,2.253h-32.919
	c-0.922-74.459-4.099-230.808-14.637-262.16c8.012-41.467,18.757-85.031,25.296-110.441c10.715,28.827,27.912,81.279,27.912,120.985
	c0,46.223,1.361,185.999,1.946,243.949C443.403,491.34,442.623,493.263,441.188,494.713z"/>
<g>
</g>
<g>
</g>
<g>
</g>
<g>
</g>
<g>
</g>
<g>
</g>
<g>
</g>
<g>
</g>
<g>
</g>
<g>
</g>
<g>
</g>
<g>
</g>
<g>
</g>
<g>
</g>
<g>
</g>
</svg>
